<mxfile host="app.diagrams.net" modified="2023-01-29T19:04:14.061Z" agent="5.0 (Windows NT 10.0; Win64; x64) AppleWebKit/537.36 (KHTML, like Gecko) Chrome/109.0.0.0 Safari/537.36" etag="1pgWFcqWTc-S-YfWXKAS" version="20.8.13" type="github">
  <diagram name="Page-1" id="6biAS6TgEiYTtTCpl2q3">
    <mxGraphModel dx="1222" dy="638" grid="1" gridSize="10" guides="1" tooltips="1" connect="1" arrows="1" fold="1" page="1" pageScale="1" pageWidth="827" pageHeight="1169" math="0" shadow="0">
      <root>
        <mxCell id="0" />
        <mxCell id="1" parent="0" />
        <mxCell id="47lemB5LR-O3jnR6HzI2-3" value="&lt;br&gt;système de gestion des patients" style="verticalAlign=top;align=left;spacingTop=8;spacingLeft=2;spacingRight=12;shape=cube;size=10;direction=south;fontStyle=4;html=1;" parent="1" vertex="1">
          <mxGeometry x="320" y="450" width="190" height="70" as="geometry" />
        </mxCell>
        <mxCell id="47lemB5LR-O3jnR6HzI2-17" style="rounded=0;orthogonalLoop=1;jettySize=auto;html=1;endArrow=none;endFill=0;" parent="1" source="47lemB5LR-O3jnR6HzI2-4" target="47lemB5LR-O3jnR6HzI2-3" edge="1">
          <mxGeometry relative="1" as="geometry" />
        </mxCell>
        <mxCell id="47lemB5LR-O3jnR6HzI2-4" value="&lt;p class=&quot;MsoNormal&quot;&gt;employé administratif&lt;span style=&quot;font-size:12.0pt;line-height:107%;font-family:&amp;quot;Comic Sans MS&amp;quot;&quot;&gt;&lt;/span&gt;&lt;/p&gt;" style="shape=umlActor;verticalLabelPosition=bottom;verticalAlign=top;html=1;" parent="1" vertex="1">
          <mxGeometry x="160" y="450" width="30" height="60" as="geometry" />
        </mxCell>
        <mxCell id="47lemB5LR-O3jnR6HzI2-16" style="edgeStyle=orthogonalEdgeStyle;rounded=0;orthogonalLoop=1;jettySize=auto;html=1;endArrow=none;endFill=0;" parent="1" source="47lemB5LR-O3jnR6HzI2-5" target="47lemB5LR-O3jnR6HzI2-3" edge="1">
          <mxGeometry relative="1" as="geometry">
            <Array as="points">
              <mxPoint x="470" y="670" />
            </Array>
          </mxGeometry>
        </mxCell>
        <mxCell id="47lemB5LR-O3jnR6HzI2-5" value="&lt;p class=&quot;MsoNormal&quot;&gt;médecin&lt;span style=&quot;font-size:12.0pt;line-height:107%;font-family:&amp;quot;Comic Sans MS&amp;quot;&quot;&gt;&lt;/span&gt;&lt;/p&gt;" style="shape=umlActor;verticalLabelPosition=bottom;verticalAlign=top;html=1;" parent="1" vertex="1">
          <mxGeometry x="480" y="640" width="30" height="60" as="geometry" />
        </mxCell>
        <mxCell id="47lemB5LR-O3jnR6HzI2-18" style="edgeStyle=orthogonalEdgeStyle;rounded=0;orthogonalLoop=1;jettySize=auto;html=1;endArrow=none;endFill=0;" parent="1" source="47lemB5LR-O3jnR6HzI2-11" target="47lemB5LR-O3jnR6HzI2-3" edge="1">
          <mxGeometry relative="1" as="geometry" />
        </mxCell>
        <mxCell id="glrFxXtsLArrY1bH6s7M-3" style="edgeStyle=orthogonalEdgeStyle;rounded=0;orthogonalLoop=1;jettySize=auto;html=1;entryX=1;entryY=0.3333333333333333;entryDx=0;entryDy=0;entryPerimeter=0;endArrow=block;endFill=0;" edge="1" parent="1" source="47lemB5LR-O3jnR6HzI2-11" target="47lemB5LR-O3jnR6HzI2-12">
          <mxGeometry relative="1" as="geometry">
            <Array as="points">
              <mxPoint x="655" y="300" />
            </Array>
          </mxGeometry>
        </mxCell>
        <mxCell id="47lemB5LR-O3jnR6HzI2-11" value="&lt;p class=&quot;MsoNormal&quot;&gt;infirmière&lt;span style=&quot;font-size:12.0pt;line-height:107%;font-family:&amp;quot;Comic Sans MS&amp;quot;&quot;&gt;&lt;/span&gt;&lt;/p&gt;" style="shape=umlActor;verticalLabelPosition=bottom;verticalAlign=top;html=1;" parent="1" vertex="1">
          <mxGeometry x="640" y="455" width="30" height="60" as="geometry" />
        </mxCell>
        <mxCell id="47lemB5LR-O3jnR6HzI2-20" style="edgeStyle=orthogonalEdgeStyle;rounded=0;orthogonalLoop=1;jettySize=auto;html=1;entryX=-0.029;entryY=0.158;entryDx=0;entryDy=0;entryPerimeter=0;endArrow=none;endFill=0;" parent="1" source="47lemB5LR-O3jnR6HzI2-12" target="47lemB5LR-O3jnR6HzI2-3" edge="1">
          <mxGeometry relative="1" as="geometry">
            <Array as="points">
              <mxPoint x="415" y="350" />
              <mxPoint x="480" y="350" />
            </Array>
          </mxGeometry>
        </mxCell>
        <mxCell id="47lemB5LR-O3jnR6HzI2-12" value="&lt;p class=&quot;MsoNormal&quot;&gt;secretaire&lt;/p&gt;&lt;p class=&quot;MsoNormal&quot;&gt;&lt;span style=&quot;font-size:12.0pt;line-height:107%;font-family:&amp;quot;Comic Sans MS&amp;quot;&quot;&gt;&lt;/span&gt;&lt;/p&gt;" style="shape=umlActor;verticalLabelPosition=bottom;verticalAlign=top;html=1;" parent="1" vertex="1">
          <mxGeometry x="400" y="280" width="30" height="60" as="geometry" />
        </mxCell>
        <mxCell id="glrFxXtsLArrY1bH6s7M-5" style="rounded=0;orthogonalLoop=1;jettySize=auto;html=1;entryX=1.057;entryY=0.929;entryDx=0;entryDy=0;entryPerimeter=0;endArrow=none;endFill=0;" edge="1" parent="1" source="glrFxXtsLArrY1bH6s7M-4" target="47lemB5LR-O3jnR6HzI2-3">
          <mxGeometry relative="1" as="geometry" />
        </mxCell>
        <mxCell id="glrFxXtsLArrY1bH6s7M-4" value="Administrateur" style="shape=umlActor;verticalLabelPosition=bottom;verticalAlign=top;html=1;outlineConnect=0;" vertex="1" parent="1">
          <mxGeometry x="320" y="650" width="30" height="60" as="geometry" />
        </mxCell>
      </root>
    </mxGraphModel>
  </diagram>
</mxfile>
